User Type,Username,Date,Text
,molibdeno,2012-11-01T15:10Z,"General
Unique ID                                : 218328167981925203679020343041361872534 (0xA44079C3ABE536C9B6D8D48F72228696)
Complete name                            :El oro de MacKenna (1969) HDTV 720p (EspaĂąol AC3 2.0 - InglĂŠs AC3 5.1).mkv
Format                                   : Matroska
Format version                           : Version 2
File size                                : 4.11 GiB
Duration                                 : 2h 2mn
Overall bit rate mode                    : Variable
Overall bit rate                         : 4 786 Kbps
Encoded date                             : UTC 2012-10-27 13:58:36
Writing application                      : mkvmerge v5.8.0 ('No Sleep / Pillow') built on Sep  2 2012 15:37:04
Writing library                          : libebml v1.2.3 + libmatroska v1.3.0

Video
ID                                       : 1
Format                                   : AVC
Format/Info                              : Advanced Video Codec
Format profile                           : High@L4.0
Format settings, CABAC                   : Yes
Format settings, ReFrames                : 3 frames
Muxing mode                              : Header stripping
Codec ID                                 : V_MPEG4/ISO/AVC
Duration                                 : 2h 2mn
Bit rate mode                            : Variable
Bit rate                                 : 3 973 Kbps
Maximum bit rate                         : 25.0 Mbps
Width                                    : 1 280 pixels
Height                                   : 720 pixels
Display aspect ratio                     : 16:9
Frame rate mode                          : Constant
Frame rate                               : 25.000 fps
Original frame rate                      : 23.976 fps
Color space                              : YUV
Chroma subsampling                       : 4:2:0
Bit depth                                : 8 bits
Scan type                                : Progressive
Bits/(Pixel*Frame)                       : 0.172
Stream size                              : 3.48 GiB (85%)
Writing library                          : x264 core 66 r1114M a933a3e
Encoding settings                        : cabac=1 / ref=3 / deblock=1:0:0 / analyse=0x3:0x133 / me=umh / subme=7 / psy_rd=1.0:0.0 / mixed_ref=1 / me_range=16 / chroma_me=1 / trellis=1 / 8x8dct=1 / cqm=0 / deadzone=21,11 / chroma_qp_offset=-2 / threads=6 / nr=0 / decimate=1 / mbaff=0 / bframes=3 / b_pyramid=0 / b_adapt=1 / b_bias=0 / direct=3 / wpredb=1 / keyint=250 / keyint_min=25 / scenecut=40(pre) / rc=2pass / bitrate=3973 / ratetol=1.0 / qcomp=0.60 / qpmin=10 / qpmax=51 / qpstep=4 / cplxblur=20.0 / qblur=0.5 / vbv_maxrate=25000 / vbv_bufsize=25000 / ip_ratio=1.40 / pb_ratio=1.30 / aq=1:1.00
Default                                  : Yes
Forced                                   : No

Audio #1
ID                                       : 2
Format                                   : AC-3
Format/Info                              : Audio Coding 3
Mode extension                           : CM (complete main)
Format settings, Endianness              : Big
Muxing mode                              : Header stripping
Codec ID                                 : A_AC3
Duration                                 : 2h 2mn
Bit rate mode                            : Constant
Bit rate                                 : 192 Kbps
Channel(s)                               : 2 channels
Channel positions                        : Front: L R
Sampling rate                            : 48.0 KHz
Bit depth                                : 16 bits
Compression mode                         : Lossy
Delay relative to video                  : 4ms
Stream size                              : 169 MiB (4%)
Language                                 : Spanish
Default                                  : Yes
Forced                                   : No

Audio #2
ID                                       : 3
Format                                   : AC-3
Format/Info                              : Audio Coding 3
Mode extension                           :"
